{
    "asset" : {
        "generator" : "Khronos glTF Blender I/O v0.9.36",
        "version" : "2.0"
    },
    "scene" : 0,
    "scenes" : [
        {
            "name" : "Scene",
            "nodes" : [
                0,
                1
            ]
        }
    ],
    "nodes" : [
        {
            "mesh" : 0,
            "name" : "Sphere"
        },
        {
            "mesh" : 1,
            "name" : "Torus"
        }
    ],
    "meshes" : [
        {
            "name" : "Sphere.001",
            "primitives" : [
                {
                    "attributes" : {
                        "POSITION" : 0,
                        "NORMAL" : 1,
                        "TEXCOORD_0" : 2
                    },
                    "indices" : 3
                }
            ]
        },
        {
            "name" : "Torus",
            "primitives" : [
                {
                    "attributes" : {
                        "POSITION" : 4,
                        "NORMAL" : 5,
                        "TEXCOORD_0" : 6
                    },
                    "indices" : 7
                }
            ]
        }
    ],
    "accessors" : [
        {
            "bufferView" : 0,
            "componentType" : 5126,
            "count" : 2819,
            "max" : [
                0.9872311353683472,
                0.9975766539573669,
                0.9872311353683472
            ],
            "min" : [
                -0.9872312545776367,
                -0.9975766539573669,
                -0.9872313737869263
            ],
            "type" : "VEC3"
        },
        {
            "bufferView" : 1,
            "componentType" : 5126,
            "count" : 2819,
            "type" : "VEC3"
        },
        {
            "bufferView" : 2,
            "componentType" : 5126,
            "count" : 2819,
            "type" : "VEC2"
        },
        {
            "bufferView" : 3,
            "componentType" : 5123,
            "count" : 11904,
            "type" : "SCALAR"
        },
        {
            "bufferView" : 4,
            "componentType" : 5126,
            "count" : 676,
            "max" : [
                1.2499998807907104,
                0.25,
                1.25
            ],
            "min" : [
                -1.2500001192092896,
                -0.25,
                -1.25
            ],
            "type" : "VEC3"
        },
        {
            "bufferView" : 5,
            "componentType" : 5126,
            "count" : 676,
            "type" : "VEC3"
        },
        {
            "bufferView" : 6,
            "componentType" : 5126,
            "count" : 676,
            "type" : "VEC2"
        },
        {
            "bufferView" : 7,
            "componentType" : 5123,
            "count" : 3456,
            "type" : "SCALAR"
        }
    ],
    "bufferViews" : [
        {
            "buffer" : 0,
            "byteLength" : 33828,
            "byteOffset" : 0
        },
        {
            "buffer" : 0,
            "byteLength" : 33828,
            "byteOffset" : 33828
        },
        {
            "buffer" : 0,
            "byteLength" : 22552,
            "byteOffset" : 67656
        },
        {
            "buffer" : 0,
            "byteLength" : 23808,
            "byteOffset" : 90208
        },
        {
            "buffer" : 0,
            "byteLength" : 8112,
            "byteOffset" : 114016
        },
        {
            "buffer" : 0,
            "byteLength" : 8112,
            "byteOffset" : 122128
        },
        {
            "buffer" : 0,
            "byteLength" : 5408,
            "byteOffset" : 130240
        },
        {
            "buffer" : 0,
            "byteLength" : 6912,
            "byteOffset" : 135648
        }
    ],
    "buffers" : [
        {
            "byteLength" : 142560,
            "uri" : "data:application/octet-stream;base64,"
        }
    ]
}
