{
	"asset":{
		"generator":"Khronos glTF Blender I/O v3.6.27",
		"version":"2.0"
	},
	"scene":0,
	"scenes":[
		{
			"name":"Scene",
			"nodes":[
				0
			]
		}
	],
	"nodes":[
		{
			"mesh":0,
			"name":"Roundcube",
			"rotation":[
				0,
				0.3826834559440613,
				0,
				0.9238795638084412
			]
		}
	],
	"meshes":[
		{
			"name":"Roundcube",
			"primitives":[
				{
					"attributes":{
						"COLOR_0":0,
						"POSITION":1,
						"NORMAL":2,
						"TEXCOORD_0":3
					},
					"indices":4
				}
			]
		}
	],
	"accessors":[
		{
			"bufferView":0,
			"componentType":5123,
			"count":274,
			"normalized":true,
			"type":"VEC4"
		},
		{
			"bufferView":1,
			"componentType":5126,
			"count":274,
			"max":[
				2.1264774829887756e-08,
				11.27182674407959,
				11.27182674407959
			],
			"min":[
				-11.27182674407959,
				0,
				1.1105164787750255e-08
			],
			"type":"VEC3"
		},
		{
			"bufferView":2,
			"componentType":5126,
			"count":274,
			"type":"VEC3"
		},
		{
			"bufferView":3,
			"componentType":5126,
			"count":274,
			"type":"VEC2"
		},
		{
			"bufferView":4,
			"componentType":5123,
			"count":1296,
			"type":"SCALAR"
		}
	],
	"bufferViews":[
		{
			"buffer":0,
			"byteLength":2192,
			"byteOffset":0,
			"target":34962
		},
		{
			"buffer":0,
			"byteLength":3288,
			"byteOffset":2192,
			"target":34962
		},
		{
			"buffer":0,
			"byteLength":3288,
			"byteOffset":5480,
			"target":34962
		},
		{
			"buffer":0,
			"byteLength":2192,
			"byteOffset":8768,
			"target":34962
		},
		{
			"buffer":0,
			"byteLength":2592,
			"byteOffset":10960,
			"target":34963
		}
	],
	"buffers":[
		{
			"byteLength":13552,
			"uri":"data:application/octet-stream;base64,"
		}
	]
}
