{
	"asset":{
		"generator":"Khronos glTF Blender I/O v3.6.27",
		"version":"2.0"
	},
	"scene":0,
	"scenes":[
		{
			"name":"Ground",
			"nodes":[
				0
			]
		}
	],
	"nodes":[
		{
			"mesh":0,
			"name":"cloth_drapery_automotive_mesh",
			"translation":[
				0,
				0.08553377538919449,
				0
			]
		}
	],
	"materials":[
		{
			"doubleSided":true,
			"name":"cloth_drapery_automotive",
			"pbrMetallicRoughness":{
				"baseColorFactor":[
					0.8000000715255737,
					0.04443975165486336,
					0.02014745958149433,
					1
				],
				"metallicFactor":0,
				"roughnessFactor":0.1865285038948059
			}
		}
	],
	"meshes":[
		{
			"name":"Mesh",
			"primitives":[
				{
					"attributes":{
						"POSITION":0,
						"NORMAL":1,
						"TEXCOORD_0":2,
						"TEXCOORD_1":3
					},
					"indices":4,
					"material":0
				}
			]
		}
	],
	"accessors":[
		{
			"bufferView":0,
			"componentType":5126,
			"count":10809,
			"max":[
				1.5418933629989624,
				1.4416899681091309,
				2.6085097789764404
			],
			"min":[
				-1.492998480796814,
				0.00012111695104977116,
				-2.780763864517212
			],
			"type":"VEC3"
		},
		{
			"bufferView":1,
			"componentType":5126,
			"count":10809,
			"type":"VEC3"
		},
		{
			"bufferView":2,
			"componentType":5126,
			"count":10809,
			"type":"VEC2"
		},
		{
			"bufferView":3,
			"componentType":5126,
			"count":10809,
			"type":"VEC2"
		},
		{
			"bufferView":4,
			"componentType":5123,
			"count":63198,
			"type":"SCALAR"
		}
	],
	"bufferViews":[
		{
			"buffer":0,
			"byteLength":129708,
			"byteOffset":0,
			"target":34962
		},
		{
			"buffer":0,
			"byteLength":129708,
			"byteOffset":129708,
			"target":34962
		},
		{
			"buffer":0,
			"byteLength":86472,
			"byteOffset":259416,
			"target":34962
		},
		{
			"buffer":0,
			"byteLength":86472,
			"byteOffset":345888,
			"target":34962
		},
		{
			"buffer":0,
			"byteLength":126396,
			"byteOffset":432360,
			"target":34963
		}
	],
	"buffers":[
		{
			"byteLength":558756,
			"uri":"TestCar.bin"
		}
	]
}
